# 3ds Max Wavefront OBJ Exporter v0.99 - (c)2007 guruware
# File Created: 19.05.2024 04:59:19

mtllib Casa.mtl

#
# object Principal
#

v  -12.5000 0.0000 20.0000
v  -12.5000 0.0000 -20.0000
v  12.5000 0.0000 -20.0000
v  12.5000 0.0000 20.0000
v  -12.5000 40.0000 20.0000
v  12.5000 40.0000 20.0000
v  12.5000 40.0000 -20.0000
v  -12.5000 40.0000 -20.0000
# 8 vertices

vn 0.0000 -1.0000 -0.0000
vn 0.0000 1.0000 -0.0000
vn 1.0000 0.0000 -0.0000
vn 0.0000 0.0000 -1.0000
vn -1.0000 0.0000 -0.0000
# 5 vertex normals

vt 1.0000 0.0000 0.0000
vt 1.0000 1.0000 0.0000
vt 0.0000 1.0000 0.0000
vt 0.0000 0.0000 0.0000
# 4 texture coords

o Principal
g Principal
usemtl 03___Default
s 2
f 1/1/1 2/2/1 3/3/1 
f 3/3/1 4/4/1 1/1/1 
s 4
f 5/4/2 6/1/2 7/2/2 
f 7/2/2 8/3/2 5/4/2 
usemtl 02___Default
s 16
f 4/4/3 3/1/3 7/2/3 
f 7/2/3 6/3/3 4/4/3 
s 32
f 3/4/4 2/1/4 8/2/4 
f 8/2/4 7/3/4 3/4/4 
s 64
f 2/4/5 1/1/5 5/2/5 
f 5/2/5 8/3/5 2/4/5 
# 10 faces

#
# object Frente
#

v  -12.5000 0.0000 20.0000
v  12.5000 0.0000 20.0000
v  12.5000 40.0000 20.0000
v  -12.5000 40.0000 20.0000
v  10.9989 40.0000 19.9994
v  12.4989 40.0000 19.9994
v  12.4989 40.4981 19.9994
v  10.9989 40.4981 19.9994
v  -11.0000 40.0000 20.0000
v  -11.0000 40.5045 20.0000
v  -12.5000 40.5045 20.0000
v  -9.8933 40.0000 20.0267
v  -8.3933 40.0000 20.0267
v  -8.3933 40.2528 20.0267
v  -9.8933 40.2528 20.0267
v  8.3930 40.0000 20.0156
v  9.8930 40.0000 20.0156
v  9.8930 40.2497 20.0156
v  8.3930 40.2497 20.0156
v  0.0000 40.7407 20.0000
v  -9.7500 40.0000 20.0000
v  0.0000 40.0000 20.0000
v  9.7500 40.0000 20.0000
v  4.8750 41.1110 20.0000
v  0.0000 42.2220 20.0000
v  -4.8750 41.1110 20.0000
# 26 vertices

vn 0.0000 0.0000 1.0000
# 1 vertex normals

vt -0.0000 0.0000 0.0000
vt 0.9994 0.0000 0.0000
vt 0.9994 0.9152 0.0000
vt -0.0000 0.9152 0.0000
vt 0.0999 0.8363 0.0000
vt 0.1612 0.8363 0.0000
vt 0.1612 0.8609 0.0000
vt 0.0999 0.8609 0.0000
vt 0.0359 0.8386 0.0000
vt 0.0782 0.8386 0.0000
vt 0.0782 0.8621 0.0000
vt 0.0359 0.8621 0.0000
vt 0.4475 0.8308 0.0000
vt 0.5051 0.8308 0.0000
vt 0.5051 0.8591 0.0000
vt 0.4475 0.8591 0.0000
vt 0.2644 0.8325 0.0000
vt 0.3792 0.8325 0.0000
vt 0.3792 0.8605 0.0000
vt 0.2644 0.8605 0.0000
vt 0.4974 0.9369 0.0000
vt -0.0010 0.9130 0.0000
vt 0.4974 0.9130 0.0000
vt 0.9959 0.9130 0.0000
vt 0.7466 0.9488 0.0000
vt 0.4974 0.9847 0.0000
vt 0.2482 0.9488 0.0000
# 27 texture coords

o Frente
g Frente
usemtl 01___Default
s 8
f 9/5/6 10/6/6 11/7/6 
f 11/7/6 12/8/6 9/5/6 
f 13/9/6 14/10/6 15/11/6 
f 15/11/6 16/12/6 13/9/6 
f 12/13/6 17/14/6 18/15/6 
f 18/15/6 19/16/6 12/13/6 
f 20/17/6 21/18/6 22/19/6 
f 22/19/6 23/20/6 20/17/6 
f 24/21/6 25/22/6 26/23/6 
f 26/23/6 27/24/6 24/21/6 
s 1
f 28/25/6 29/26/6 30/27/6 
f 28/25/6 30/27/6 31/28/6 
f 28/25/6 31/28/6 32/29/6 
f 28/25/6 32/29/6 33/30/6 
f 28/25/6 33/30/6 34/31/6 
f 28/25/6 34/31/6 29/26/6 
# 16 faces

#
# object PlantaBaja
#

v  -6.6352 0.1500 19.7500
v  -6.6352 0.1500 -19.7500
v  6.6352 0.1500 -19.7500
v  6.6352 0.1500 19.7500
v  -6.6352 19.9000 19.7500
v  6.6352 19.9000 19.7500
v  6.6352 19.9000 -19.7500
v  -6.6352 19.9000 -19.7500
# 8 vertices

vn 0.0000 -1.0000 -0.0000
vn 0.0000 1.0000 -0.0000
vn 1.0000 0.0000 -0.0000
vn 0.0000 0.0000 -1.0000
vn -1.0000 0.0000 -0.0000
# 5 vertex normals

vt 1.0000 0.0000 0.0000
vt 1.0000 1.0000 0.0000
vt 0.0000 1.0000 0.0000
vt 0.0000 0.0000 0.0000
vt 0.0739 0.2418 0.0000
vt 0.7779 0.2418 0.0000
vt 0.7779 0.7918 0.0000
vt 0.0739 0.7918 0.0000
vt 0.3140 0.7629 0.0000
vt 0.0837 0.7629 0.0000
vt 0.0837 0.2181 0.0000
vt 0.3140 0.2181 0.0000
vt 0.7687 0.7723 0.0000
vt 0.0627 0.7723 0.0000
vt 0.0627 0.2114 0.0000
vt 0.7687 0.2114 0.0000
# 16 texture coords

o PlantaBaja
g PlantaBaja
usemtl 06___Default
s 2
f 35/32/7 36/33/7 37/34/7 
f 37/34/7 38/35/7 35/32/7 
usemtl 04___Default
s 4
f 39/35/8 40/32/8 41/33/8 
f 41/33/8 42/34/8 39/35/8 
usemtl 05___Default
s 16
f 38/36/9 37/37/9 41/38/9 
f 41/38/9 40/39/9 38/36/9 
s 32
f 37/40/10 36/41/10 42/42/10 
f 42/42/10 41/43/10 37/40/10 
s 64
f 36/44/11 35/45/11 39/46/11 
f 39/46/11 42/47/11 36/44/11 
# 10 faces

#
# object PlantaAlta
#

v  -10.0000 20.0645 19.7500
v  -10.0000 20.0645 -19.7500
v  10.0000 20.0645 -19.7500
v  10.0000 20.0645 19.7500
v  -10.0000 39.8145 19.7500
v  10.0000 39.8145 19.7500
v  10.0000 39.8145 -19.7500
v  -10.0000 39.8145 -19.7500
# 8 vertices

vn 0.0000 -1.0000 -0.0000
vn 0.0000 1.0000 -0.0000
vn 1.0000 0.0000 -0.0000
vn 0.0000 0.0000 -1.0000
vn -1.0000 0.0000 -0.0000
# 5 vertex normals

vt 1.0000 0.0000 0.0000
vt 1.0000 1.0000 0.0000
vt 0.0000 1.0000 0.0000
vt 0.0000 0.0000 0.0000
# 4 texture coords

o PlantaAlta
g PlantaAlta
usemtl 08___Default
s 2
f 43/48/12 44/49/12 45/50/12 
f 45/50/12 46/51/12 43/48/12 
usemtl 04___Default
s 4
f 47/51/13 48/48/13 49/49/13 
f 49/49/13 50/50/13 47/51/13 
s 16
f 46/51/14 45/48/14 49/49/14 
f 49/49/14 48/50/14 46/51/14 
s 32
f 45/51/15 44/48/15 50/49/15 
f 50/49/15 49/50/15 45/51/15 
s 64
f 44/51/16 43/48/16 47/49/16 
f 47/49/16 50/50/16 44/51/16 
# 10 faces

#
# object FrentePlantaBaja
#

v  -6.6352 0.1500 19.7500
v  6.6352 0.1500 19.7500
v  6.6352 19.9000 19.7500
v  -6.6352 19.9000 19.7500
# 4 vertices

vn 0.0000 0.0000 1.0000
# 1 vertex normals

vt 0.0000 0.0000 0.0000
vt 1.0013 0.0000 0.0000
vt 1.0013 0.9941 0.0000
vt 0.0000 0.9941 0.0000
# 4 texture coords

o FrentePlantaBaja
g FrentePlantaBaja
usemtl 07___Default
s 8
f 51/52/17 52/53/17 53/54/17 
f 53/54/17 54/55/17 51/52/17 
# 2 faces

#
# object FrentePlantaAlta
#

v  -10.0000 20.0645 19.7500
v  10.0000 20.0645 19.7500
v  10.0000 39.8145 19.7500
v  -10.0000 39.8145 19.7500
# 4 vertices

vn 0.0000 0.0000 1.0000
# 1 vertex normals

vt 0.0000 0.0000 0.0000
vt 1.0000 0.0000 0.0000
vt 1.0000 1.0000 0.0000
vt 0.0000 1.0000 0.0000
# 4 texture coords

o FrentePlantaAlta
g FrentePlantaAlta
usemtl 09___Default
s 8
f 55/56/18 56/57/18 57/58/18 
f 57/58/18 58/59/18 55/56/18 
# 2 faces

